# xmcd
#
# Track frame offsets:
#	150
#	17273
#	34183
#	47974
#	59812
#	82039
#	97195
#	122262
#	133676
#	146926
#	169311
#
# Disc length: 2494 seconds
#
# Revision: 0
# Processed by: cddbd v1.5.1PL0 Copyright (c) Steve Scherf et al.
# Submitted via: dBpowerAMP V4.0
#
DISCID=a009bc0b
DTITLE=John Dummer Band - John Dummer Band
DYEAR=1969
DGENRE=Blues
TTITLE0=Few Short Lines
TTITLE1=Bullfrog Blues
TTITLE2=Try Me One More Time
TTITLE3=Money and Fame
TTITLE4=Reconsider Baby
TTITLE5=Riding At Midnight
TTITLE6=Ain´t Gonna Work No More
TTITLE7=Big Feeling
TTITLE8=Memphis Minnie
TTITLE9=Birds and Booze Blues
TTITLE10=Skin Game
EXTD=
EXTT0=
EXTT1=
EXTT2=
EXTT3=
EXTT4=
EXTT5=
EXTT6=
EXTT7=
EXTT8=
EXTT9=
EXTT10=
PLAYORDER=
